<svg xmlns="http://www.w3.org/2000/svg" width="430" height="430" fill="none" viewBox="0 0 430 430"><mask id="u9fuiyhvU6a" width="335" height="335" x="52" y="47" maskUnits="userSpaceOnUse" style="mask-type:alpha"><circle cx="219.5" cy="214.5" r="167.5" fill="#fff"/></mask><g mask="url(#u9fuiyhvU6a)"><path stroke="#000" stroke-linejoin="round" stroke-width="6" d="M263.202 130.986c3.291-4.243 17.198-20.48 35.949-18.508 12.033 16.558 2.626 38.902 1.551 41.317 8.199 10.842 12.678 25.5 12.678 45.021 0 47.676-20.609 66.346-66.022 71.262 5.613 4.584 9.197 11.56 9.197 19.373v107.862h-79.29V289.451c0-7.811 3.582-14.786 9.194-19.37C140.923 265.17 120 246.502 120 198.816c0-19.681 4.605-34.42 13.001-45.288-1.497-3.469-10.007-24.983 1.668-41.05 18.722-1.969 32.614 14.213 35.934 18.488 13.389-3.457 29.003-4.832 46.307-4.832 17.339 0 32.94 1.381 46.292 4.852Z"/></g><path stroke="#000" stroke-linecap="round" stroke-linejoin="round" stroke-width="6" d="M177.265 329.808c-11.334 4.166-31.144 8.785-46.5-3.5-5-4-10.391-9.281-15-18.5-4.75-9.5-10-13-19-22-7.5-7.5 1.703-23.102 15.5-15.5 8.207 4.522 14.835 15.759 19.5 21.5 13 16 31.833 9.5 45.5 5"/><circle cx="215" cy="215" r="167.5" stroke="#121331" stroke-width="6"/></svg>